# Blender v2.93.5 OBJ File: ''
# www.blender.org
mtllib fishh.mtl
o Plane
v -1.000000 0.000000 1.000000
v 1.000000 0.000000 1.000000
v -1.000000 0.000000 -1.000000
v 1.000000 0.000000 -1.000000
v -1.965056 0.000000 1.054024
v 1.965056 0.000000 1.054024
v 0.000000 0.000000 2.537817
v 0.000000 0.000000 -2.549914
v 0.000000 0.000000 0.000000
v 0.500000 0.000000 2.537817
v 0.500000 0.000000 -2.162436
v 0.500000 0.000000 0.000000
v -0.500000 0.000000 -2.162436
v -0.500000 0.000000 0.000000
v -0.500000 0.000000 2.537817
v -1.000000 0.000000 0.500000
v 1.000000 0.000000 0.500000
v 0.000000 0.000000 0.500000
v 0.500000 0.000000 0.500000
v -0.500000 0.000000 0.500000
v 1.965056 0.000000 0.071496
v -1.965056 0.000000 0.071496
v 0.000000 0.000000 -1.662435
v 0.500000 0.000000 -1.274957
v -0.500000 0.000000 -1.274957
v 0.000000 0.000000 2.821338
v 0.500000 0.000000 2.821338
v -0.500000 0.000000 2.821338
v 0.000000 0.000000 3.354358
v 1.339646 0.000000 3.354358
v -1.339646 0.000000 3.354358
v 0.000000 0.000000 3.853355
v 1.623621 0.000000 3.853355
v -1.623621 0.000000 3.853355
v -1.965056 0.000000 0.562760
v 1.965056 0.000000 0.562760
v 0.000000 0.000000 -0.831218
v 0.500000 0.000000 -0.637479
v -0.500000 0.000000 -0.637479
v -1.000000 0.000000 0.750000
v 1.000000 0.000000 0.750000
v 0.000000 0.000000 1.518909
v 0.500000 0.000000 1.518909
v -0.500000 0.000000 1.518909
v -1.000000 0.000000 0.875000
v 1.000000 0.000000 0.875000
v 0.000000 0.000000 2.028363
v 0.500000 0.000000 2.028363
v -0.500000 0.000000 2.028363
v 1.000000 0.000000 0.625000
v 0.000000 0.000000 1.009454
v 0.500000 0.000000 1.009454
v -0.500000 0.000000 1.009454
v -1.000000 0.000000 0.625000
v 0.000000 0.000000 3.087848
v 0.919823 0.000000 3.087848
v -0.919823 0.000000 3.087848
v -0.250000 0.000000 2.537817
v -0.250000 0.000000 -2.356175
v -0.250000 0.000000 0.000000
v -0.250000 0.000000 0.500000
v -0.250000 0.000000 -1.468696
v -0.250000 0.000000 2.821338
v -0.669823 0.000000 3.354358
v -0.811811 0.000000 3.853355
v -0.250000 0.000000 -0.734348
v -0.250000 0.000000 1.518909
v -0.250000 0.000000 2.028363
v -0.250000 0.000000 1.009454
v -0.459911 0.000000 3.087848
v 0.250000 0.000000 -2.356175
v 0.250000 0.000000 0.000000
v 0.250000 0.000000 2.537817
v 0.250000 0.000000 0.500000
v 0.250000 0.000000 -1.468696
v 0.250000 0.000000 2.821338
v 0.669823 0.000000 3.354358
v 0.811811 0.000000 3.853355
v 0.250000 0.000000 -0.734348
v 0.250000 0.000000 1.518909
v 0.250000 0.000000 2.028363
v 0.250000 0.000000 1.009454
v 0.459911 0.000000 3.087848
v 0.614706 0.000000 2.185024
v 0.614706 0.000000 -1.895759
v 0.836101 0.000000 0.241805
v 0.614706 0.000000 0.500000
v 0.836101 0.000000 -0.966065
v 0.836101 0.000000 -0.362130
v 0.614706 0.000000 1.342512
v 0.614706 0.000000 1.763768
v 0.614706 0.000000 0.921256
v -0.631150 0.000000 -1.857530
v -0.884283 0.000000 0.276469
v -0.631150 0.000000 2.134449
v -0.631150 0.000000 0.500000
v -0.884283 0.000000 -0.921784
v -0.884283 0.000000 -0.322657
v -0.631150 0.000000 1.317225
v -0.631150 0.000000 1.725837
v -0.631150 0.000000 0.908612
vt 0.807353 0.750000
vt 1.000000 0.750000
vt 1.000000 1.000000
vt 0.795149 0.985326
vt 0.824414 0.231366
vt 1.000000 0.250000
vt 1.000000 0.500000
vt 0.807353 0.500000
vt 0.375000 0.250000
vt 0.500000 0.250000
vt 0.500000 0.500000
vt 0.375000 0.500000
vt 0.375000 0.750000
vt 0.500000 0.750000
vt 0.500000 1.000000
vt 0.375000 1.000000
vt 0.625000 0.250000
vt 0.750000 0.250000
vt 0.750000 0.500000
vt 0.625000 0.500000
vt 0.625000 0.750000
vt 0.750000 0.750000
vt 0.750000 1.000000
vt 0.625000 1.000000
vt 0.184425 0.750000
vt 0.250000 0.750000
vt 0.250000 1.000000
vt 0.193674 0.988880
vt 0.161932 0.225433
vt 0.250000 0.250000
vt 0.250000 0.500000
vt 0.184425 0.500000
vt 0.184425 0.187500
vt 0.250000 0.187500
vt 0.625000 0.187500
vt 0.750000 0.187500
vt 0.375000 0.187500
vt 0.500000 0.187500
vt 0.807353 0.187500
vt 1.000000 0.187500
vt 0.184425 0.625000
vt 0.250000 0.625000
vt 0.625000 0.625000
vt 0.750000 0.625000
vt 0.375000 0.625000
vt 0.500000 0.625000
vt 0.807353 0.625000
vt 1.000000 0.625000
vt 0.625000 0.000000
vt 0.500000 0.000000
vt 0.500000 0.000000
vt 0.625000 0.000000
vt 0.375000 0.000000
vt 0.250000 0.000000
vt 0.250000 0.000000
vt 0.375000 0.000000
vt 0.625000 0.000000
vt 0.500000 0.000000
vt 0.500000 0.000000
vt 0.625000 0.000000
vt 0.375000 0.000000
vt 0.250000 0.000000
vt 0.250000 0.000000
vt 0.375000 0.000000
vt 0.500000 0.000000
vt 0.625000 0.000000
vt 0.250000 0.000000
vt 0.375000 0.000000
vt 0.807353 0.062500
vt 1.000000 0.062500
vt 1.000000 0.125000
vt 0.807353 0.125000
vt 0.375000 0.062500
vt 0.500000 0.062500
vt 0.500000 0.125000
vt 0.375000 0.125000
vt 0.625000 0.062500
vt 0.750000 0.062500
vt 0.750000 0.125000
vt 0.625000 0.125000
vt 0.184425 0.062500
vt 0.250000 0.062500
vt 0.250000 0.125000
vt 0.184425 0.125000
vt 0.184425 0.000000
vt 0.750000 0.000000
vt 0.807353 0.000000
vt 1.000000 0.000000
vt 0.750000 0.000000
vt 0.750000 0.000000
vt 0.750000 0.000000
vt 0.750000 0.000000
vt 0.000000 0.125000
vt 0.000000 0.187500
vt 0.000000 0.000000
vt 0.000000 0.062500
vt 0.000000 0.500000
vt 0.000000 0.625000
vt 0.000000 0.750000
vt 0.000000 0.250000
vt 0.000000 1.000000
vn 0.0000 1.0000 0.0000
usemtl None
s off
f 88/1/1 21/2/1 4/3/1 85/4/1
f 87/5/1 17/6/1 6/7/1 86/8/1
f 61/9/1 18/10/1 9/11/1 60/12/1
f 62/13/1 23/14/1 8/15/1 59/16/1
f 74/17/1 19/18/1 12/19/1 72/20/1
f 75/21/1 24/22/1 11/23/1 71/24/1
f 97/25/1 25/26/1 13/27/1 93/28/1
f 96/29/1 20/30/1 14/31/1 94/32/1
f 101/33/1 53/34/1 20/30/1 96/29/1
f 82/35/1 52/36/1 19/18/1 74/17/1
f 69/37/1 51/38/1 18/10/1 61/9/1
f 92/39/1 50/40/1 17/6/1 87/5/1
f 98/41/1 39/42/1 25/26/1 97/25/1
f 79/43/1 38/44/1 24/22/1 75/21/1
f 66/45/1 37/46/1 23/14/1 62/13/1
f 89/47/1 36/48/1 21/2/1 88/1/1
f 73/49/1 7/50/1 26/51/1 76/52/1
f 58/53/1 15/54/1 28/55/1 63/56/1
f 83/57/1 55/58/1 29/59/1 77/60/1
f 70/61/1 57/62/1 31/63/1 64/64/1
f 77/60/1 29/59/1 32/65/1 78/66/1
f 64/64/1 31/63/1 34/67/1 65/68/1
f 86/8/1 6/7/1 36/48/1 89/47/1
f 60/12/1 9/11/1 37/46/1 66/45/1
f 72/20/1 12/19/1 38/44/1 79/43/1
f 94/32/1 14/31/1 39/42/1 98/41/1
f 91/69/1 46/70/1 41/71/1 90/72/1
f 68/73/1 47/74/1 42/75/1 67/76/1
f 81/77/1 48/78/1 43/79/1 80/80/1
f 100/81/1 49/82/1 44/83/1 99/84/1
f 95/85/1 15/54/1 49/82/1 100/81/1
f 73/49/1 10/86/1 48/78/1 81/77/1
f 58/53/1 7/50/1 47/74/1 68/73/1
f 84/87/1 2/88/1 46/70/1 91/69/1
f 90/72/1 41/71/1 50/40/1 92/39/1
f 67/76/1 42/75/1 51/38/1 69/37/1
f 80/80/1 43/79/1 52/36/1 82/35/1
f 99/84/1 44/83/1 53/34/1 101/33/1
f 63/56/1 28/55/1 57/62/1 70/61/1
f 76/52/1 26/51/1 55/58/1 83/57/1
f 26/51/1 63/56/1 70/61/1 55/58/1
f 44/83/1 67/76/1 69/37/1 53/34/1
f 15/54/1 58/53/1 68/73/1 49/82/1
f 49/82/1 68/73/1 67/76/1 44/83/1
f 14/31/1 60/12/1 66/45/1 39/42/1
f 29/59/1 64/64/1 65/68/1 32/65/1
f 55/58/1 70/61/1 64/64/1 29/59/1
f 7/50/1 58/53/1 63/56/1 26/51/1
f 39/42/1 66/45/1 62/13/1 25/26/1
f 53/34/1 69/37/1 61/9/1 20/30/1
f 25/26/1 62/13/1 59/16/1 13/27/1
f 20/30/1 61/9/1 60/12/1 14/31/1
f 27/89/1 76/52/1 83/57/1 56/90/1
f 42/75/1 80/80/1 82/35/1 51/38/1
f 7/50/1 73/49/1 81/77/1 47/74/1
f 47/74/1 81/77/1 80/80/1 42/75/1
f 9/11/1 72/20/1 79/43/1 37/46/1
f 30/91/1 77/60/1 78/66/1 33/92/1
f 56/90/1 83/57/1 77/60/1 30/91/1
f 10/86/1 73/49/1 76/52/1 27/89/1
f 37/46/1 79/43/1 75/21/1 23/14/1
f 51/38/1 82/35/1 74/17/1 18/10/1
f 23/14/1 75/21/1 71/24/1 8/15/1
f 18/10/1 74/17/1 72/20/1 9/11/1
f 43/79/1 90/72/1 92/39/1 52/36/1
f 10/86/1 84/87/1 91/69/1 48/78/1
f 48/78/1 91/69/1 90/72/1 43/79/1
f 12/19/1 86/8/1 89/47/1 38/44/1
f 38/44/1 89/47/1 88/1/1 24/22/1
f 52/36/1 92/39/1 87/5/1 19/18/1
f 19/18/1 87/5/1 86/8/1 12/19/1
f 24/22/1 88/1/1 85/4/1 11/23/1
f 40/93/1 99/84/1 101/33/1 54/94/1
f 1/95/1 95/85/1 100/81/1 45/96/1
f 45/96/1 100/81/1 99/84/1 40/93/1
f 5/97/1 94/32/1 98/41/1 35/98/1
f 35/98/1 98/41/1 97/25/1 22/99/1
f 54/94/1 101/33/1 96/29/1 16/100/1
f 16/100/1 96/29/1 94/32/1 5/97/1
f 22/99/1 97/25/1 93/28/1 3/101/1
